<svg xmlns="http://www.w3.org/2000/svg" xmlns:xlink="http://www.w3.org/1999/xlink" width="68" height="68" viewBox="0 0 68 68"><defs><style>.a{stroke:#707070;fill:url(#a);}.b{clip-path:url(#b);}.c{fill-rule:evenodd;fill:url(#c);}</style><linearGradient id="a" x1="0.5" x2="0.5" y2="1" gradientUnits="objectBoundingBox"><stop offset="0" stop-color="#fea05f"/><stop offset="1" stop-color="#fad590"/></linearGradient><clipPath id="b"><rect class="a" width="68" height="68" transform="translate(524 868)"/></clipPath><linearGradient id="c" x1="-0.114" y1="-0.183" x2="1.321" y2="1.462" gradientUnits="objectBoundingBox"><stop offset="0" stop-color="#0072bc"/><stop offset="1" stop-color="#83c59e"/></linearGradient></defs><g class="b" transform="translate(-524 -868)"><path class="c" d="M37.021,13.894a8.967,8.967,0,0,1,15.631,0l25.02,44.48a8.967,8.967,0,0,1-7.816,13.363H19.817A8.967,8.967,0,0,1,12,58.373Zm12.3,44.393A4.484,4.484,0,1,1,44.836,53.8,4.483,4.483,0,0,1,49.32,58.287ZM44.836,22.418A4.484,4.484,0,0,0,40.353,26.9V40.352a4.484,4.484,0,1,0,8.967,0V26.9A4.484,4.484,0,0,0,44.836,22.418Z" transform="translate(513.163 861.47)"/></g></svg>