<svg xmlns="http://www.w3.org/2000/svg" xmlns:xlink="http://www.w3.org/1999/xlink" width="68" height="68" viewBox="0 0 68 68"><defs><style>.a{fill:#fff;stroke:#707070;}.b{clip-path:url(#a);}.c,.d{fill:url(#b);}.d{fill-rule:evenodd;}</style><clipPath id="a"><rect class="a" width="68" height="68" transform="translate(-0.446 -0.446)"/></clipPath><linearGradient id="b" x1="0.5" x2="0.5" y2="1" gradientUnits="objectBoundingBox"><stop offset="0" stop-color="#687aff"/><stop offset="0.31" stop-color="#7a9cf0"/><stop offset="1" stop-color="#8dc0e0"/></linearGradient></defs><g class="b" transform="translate(0.446 0.446)"><path class="c" d="M65.152,46.013A8.389,8.389,0,1,0,62.7,51.945,8.388,8.388,0,0,0,65.152,46.013Z" transform="translate(-27.404 -16.654)"/><path class="d" d="M44.3,77.858A33.554,33.554,0,1,1,77.858,44.3,33.554,33.554,0,0,1,44.3,77.858ZM40.11,23.333a16.78,16.78,0,0,1,14.453,25.3l9.484,9.484a4.194,4.194,0,0,1-5.932,5.931l-9.483-9.484a16.778,16.778,0,1,1-8.522-31.23Z" transform="translate(-10.75 -10.75)"/></g></svg>