<svg xmlns="http://www.w3.org/2000/svg" xmlns:xlink="http://www.w3.org/1999/xlink" width="68" height="67.891" viewBox="0 0 68 67.891"><defs><style>.a{fill:url(#a);}</style><linearGradient id="a" x1="0.5" x2="0.5" y2="1" gradientUnits="objectBoundingBox"><stop offset="0" stop-color="#0072bc"/><stop offset="1" stop-color="#83c59e"/></linearGradient></defs><g transform="translate(-276 -488.63)"><path class="a" d="M354.756,536.583c-.171,1.24-.275,2.494-.524,3.719-2.406,11.845-9.155,20.28-20.39,24.739a32.663,32.663,0,0,1-42.712-19.163,32.093,32.093,0,0,1-.253-21.935c.047-.141.113-.276.2-.477a5.5,5.5,0,0,0,3.58,2.048,19.155,19.155,0,0,0,3.809-.274c1.35-.179,2.685-.47,4.068-.719a21.815,21.815,0,0,0,34.32,25.908,21.619,21.619,0,0,0,3.807-26.979,21.173,21.173,0,0,0-12.777-9.808,21.657,21.657,0,0,0-16.027,1.6c.285-1.6.49-3.133.841-4.631a6.5,6.5,0,0,0-1.978-6.9c1.514-.416,2.882-.88,4.286-1.164a32.884,32.884,0,0,1,39.37,27.113c.153.933.256,1.875.382,2.813Z" transform="translate(-10.756 -10.838)"/><path class="a" d="M276,545.732a2.86,2.86,0,0,1,1.9-1.592c1.422-.477,2.812-1.05,4.228-1.545a.858.858,0,0,1,.734.1q5.4,5.336,10.755,10.712a1.616,1.616,0,0,1,.148.236c-1.5.277-2.963.548-4.425.815-1.2.218-2.394.414-3.586.651a2.5,2.5,0,0,1-2.461-.758c-2.134-2.177-4.313-4.311-6.46-6.476a10.222,10.222,0,0,1-.828-1.085Z" transform="translate(0 -44.377)"/><path class="a" d="M334.045,488.63c.521.429,1.079.821,1.558,1.292,2.032,2,4.029,4.032,6.065,6.027a2.361,2.361,0,0,1,.733,2.275c-.5,2.687-.986,5.376-1.5,8.175-.207-.191-.365-.327-.513-.473q-5.162-5.149-10.329-10.293a.759.759,0,0,1-.226-.963c.548-1.371,1.078-2.75,1.55-4.149a2.856,2.856,0,0,1,1.6-1.891Z" transform="translate(-44.233)"/><path class="a" d="M377.96,593.158c.822.835,1.636,1.668,2.456,2.5.7.706,1.394,1.42,2.118,2.1a.553.553,0,0,1,.1.836,10.7,10.7,0,1,0,3.522-3.555.726.726,0,0,1-.659.017c-1.587-1.536-3.144-3.1-4.71-4.661,4.892-4.453,14.969-6.122,22.526.233a17.8,17.8,0,1,1-25.35,2.532Z" transform="translate(-80.652 -80.489)"/><path class="a" d="M436.989,652.059c1.508,1.5,2.98,2.967,4.445,4.435a2.044,2.044,0,0,0,1.846.691,1.99,1.99,0,0,0,1.08-3.4c-1.319-1.338-2.654-2.661-3.987-3.984-.171-.17-.372-.31-.572-.475,2.245-1.633,6.11-.972,8.215,1.32a6.8,6.8,0,1,1-11.028,1.415Z" transform="translate(-131.82 -131.493)"/></g></svg>