<svg xmlns="http://www.w3.org/2000/svg" xmlns:xlink="http://www.w3.org/1999/xlink" width="68" height="68" viewBox="0 0 68 68"><defs><style>.a{fill:#fff;stroke:#707070;}.b{clip-path:url(#a);}.c{fill:url(#b);}</style><clipPath id="a"><rect class="a" width="68" height="68" transform="translate(606 982)"/></clipPath><linearGradient id="b" x1="0.5" x2="0.5" y2="1" gradientUnits="objectBoundingBox"><stop offset="0" stop-color="#0072bc"/><stop offset="1" stop-color="#83c59e"/></linearGradient></defs><g class="b" transform="translate(-606 -982)"><g transform="translate(597.5 973.5)"><path class="c" d="M46.75,12.75a4.25,4.25,0,0,0-8.5,0V17a4.25,4.25,0,0,0,8.5,0Z"/><path class="c" d="M66.541,24.469a4.25,4.25,0,1,0-6.01-6.01l-3.005,3.005a4.25,4.25,0,0,0,6.01,6.01Z"/><path class="c" d="M76.5,42.5a4.25,4.25,0,0,1-4.25,4.25H68a4.25,4.25,0,0,1,0-8.5h4.25A4.25,4.25,0,0,1,76.5,42.5Z"/><path class="c" d="M21.463,27.474a4.25,4.25,0,0,0,6.01-6.01l-3.005-3.005a4.25,4.25,0,0,0-6.01,6.01Z"/><path class="c" d="M21.25,42.5A4.25,4.25,0,0,1,17,46.75H12.75a4.25,4.25,0,0,1,0-8.5H17A4.25,4.25,0,0,1,21.25,42.5Z"/><path class="c" d="M34,68V63.75H51V68a8.5,8.5,0,0,1-17,0Z"/><path class="c" d="M51,59.5a5.026,5.026,0,0,1,2.023-3.65,17,17,0,1,0-21.053,0A5.026,5.026,0,0,1,34,59.5Z"/></g></g></svg>