<svg xmlns="http://www.w3.org/2000/svg" xmlns:xlink="http://www.w3.org/1999/xlink" width="68" height="68" viewBox="0 0 68 68"><defs><style>.a{stroke:#707070;}.a,.c{fill:url(#a);}.b{clip-path:url(#b);}</style><linearGradient id="a" x1="0.5" x2="0.5" y2="1" gradientUnits="objectBoundingBox"><stop offset="0" stop-color="#687aff"/><stop offset="0.31" stop-color="#7a9cf0"/><stop offset="1" stop-color="#8dc0e0"/></linearGradient><clipPath id="b"><rect class="a" width="68" height="68" transform="translate(233 3401)"/></clipPath></defs><g class="b" transform="translate(-233 -3401)"><g transform="translate(233 3403.125)"><path class="c" d="M10.75,24.625a8.5,8.5,0,0,1,8.5-8.5H49a8.5,8.5,0,0,1,8.5,8.5v17a8.5,8.5,0,0,1-8.5,8.5H40.5L27.75,62.875V50.125h-8.5a8.5,8.5,0,0,1-8.5-8.5Z" transform="translate(-10.75 -16.125)"/><path class="c" d="M72.819,37.625v8.5a17,17,0,0,1-17,17H50.84l-7.508,7.508a8.463,8.463,0,0,0,3.988.992h8.5l12.75,12.75V71.625h8.5a8.5,8.5,0,0,0,8.5-8.5v-17a8.5,8.5,0,0,0-8.5-8.5Z" transform="translate(-17.569 -20.625)"/></g></g></svg>