<svg xmlns="http://www.w3.org/2000/svg" xmlns:xlink="http://www.w3.org/1999/xlink" width="68" height="68" viewBox="0 0 68 68"><defs><style>.a{fill:#fff;stroke:#707070;}.b{clip-path:url(#a);}.c{fill:url(#b);}</style><clipPath id="a"><rect class="a" width="68" height="68" transform="translate(233 3401)"/></clipPath><linearGradient id="b" x1="0.5" x2="0.5" y2="1" gradientUnits="objectBoundingBox"><stop offset="0" stop-color="#687aff"/><stop offset="0.31" stop-color="#7a9cf0"/><stop offset="1" stop-color="#8dc0e0"/></linearGradient></defs><g class="b" transform="translate(-233 -3401)"><g transform="translate(233 3401)"><path class="c" d="M56.875,15a4.25,4.25,0,0,0-8.5,0v4.25a4.25,4.25,0,0,0,8.5,0Z" transform="translate(-18.625 -10.75)"/><path class="c" d="M81.439,29.025a4.25,4.25,0,1,0-6.01-6.01L72.424,26.02a4.25,4.25,0,1,0,6.01,6.01Z" transform="translate(-23.398 -13.056)"/><path class="c" d="M93.375,52.625a4.25,4.25,0,0,1-4.25,4.25h-4.25a4.25,4.25,0,0,1,0-8.5h4.25A4.25,4.25,0,0,1,93.375,52.625Z" transform="translate(-25.375 -18.625)"/><path class="c" d="M26.02,32.03a4.25,4.25,0,1,0,6.01-6.01l-3.005-3.005a4.25,4.25,0,0,0-6.01,6.01Z" transform="translate(-13.056 -13.056)"/><path class="c" d="M23.5,52.625a4.25,4.25,0,0,1-4.25,4.25H15a4.25,4.25,0,0,1,0-8.5h4.25A4.25,4.25,0,0,1,23.5,52.625Z" transform="translate(-10.75 -18.625)"/><path class="c" d="M43,84.875v-4.25H60v4.25a8.5,8.5,0,0,1-17,0Z" transform="translate(-17.5 -25.375)"/><path class="c" d="M57.754,66.25a5.026,5.026,0,0,1,2.023-3.65,17,17,0,1,0-21.053,0,5.026,5.026,0,0,1,2.023,3.65Z" transform="translate(-15.25 -15.25)"/></g></g></svg>