<svg xmlns="http://www.w3.org/2000/svg" xmlns:xlink="http://www.w3.org/1999/xlink" width="68" height="68" viewBox="0 0 68 68"><defs><style>.a{fill:#fff;stroke:#707070;}.b{clip-path:url(#a);}.c{fill-rule:evenodd;fill:url(#b);}</style><clipPath id="a"><rect class="a" width="68" height="68" transform="translate(242 3426)"/></clipPath><linearGradient id="b" x1="0.5" x2="0.5" y2="1" gradientUnits="objectBoundingBox"><stop offset="0" stop-color="#687aff"/><stop offset="0.31" stop-color="#7a9cf0"/><stop offset="1" stop-color="#8dc0e0"/></linearGradient></defs><g class="b" transform="translate(-242 -3426)"><path class="c" d="M76.5,42.5a34,34,0,1,1-34-34A34,34,0,0,1,76.5,42.5ZM51,29.75a8.5,8.5,0,1,1-8.5-8.5A8.5,8.5,0,0,1,51,29.75Zm-8.5,17A21.254,21.254,0,0,0,23.178,59.142a25.5,25.5,0,0,0,38.643,0A21.254,21.254,0,0,0,42.5,46.75Z" transform="translate(233.5 3417.5)"/></g></svg>