<svg xmlns="http://www.w3.org/2000/svg" xmlns:xlink="http://www.w3.org/1999/xlink" width="68" height="68" viewBox="0 0 68 68"><defs><style>.a{fill:#fff;stroke:#707070;}.b{clip-path:url(#a);}.c{fill:url(#b);}</style><clipPath id="a"><rect class="a" width="68" height="68" transform="translate(233 3401)"/></clipPath><linearGradient id="b" x1="0.5" x2="0.5" y2="1" gradientUnits="objectBoundingBox"><stop offset="0" stop-color="#687aff"/><stop offset="0.31" stop-color="#7a9cf0"/><stop offset="1" stop-color="#8dc0e0"/></linearGradient></defs><g class="b" transform="translate(-233 -3401)"><g transform="translate(233 3406.667)"><path class="c" d="M56.111,25.667A11.333,11.333,0,1,1,44.778,14.333,11.333,11.333,0,0,1,56.111,25.667Z" transform="translate(-10.778 -14.333)"/><path class="c" d="M82,36.222a7.556,7.556,0,1,1-7.556-7.556A7.555,7.555,0,0,1,82,36.222Z" transform="translate(-17.778 -17.333)"/><path class="c" d="M58.889,67.667a15.111,15.111,0,1,0-30.222,0V79H58.889Z" transform="translate(-9.778 -22.333)"/><path class="c" d="M24.667,36.222a7.556,7.556,0,1,1-7.556-7.556A7.556,7.556,0,0,1,24.667,36.222Z" transform="translate(-5.778 -17.333)"/><path class="c" d="M75.7,80V68.667A22.562,22.562,0,0,0,72.864,57.69,11.344,11.344,0,0,1,87.028,68.667V80Z" transform="translate(-19.028 -23.333)"/><path class="c" d="M18.942,57.69a22.566,22.566,0,0,0-2.831,10.977V80H4.778V68.667A11.343,11.343,0,0,1,18.942,57.69Z" transform="translate(-4.778 -23.333)"/></g></g></svg>