<?xml version="1.0" standalone="no"?>
<!DOCTYPE svg PUBLIC "-//W3C//DTD SVG 20010904//EN"
 "http://www.w3.org/TR/2001/REC-SVG-20010904/DTD/svg10.dtd">
<svg version="1.0" xmlns="http://www.w3.org/2000/svg"
 width="640.000000pt" height="640.000000pt" viewBox="0 0 640.000000 640.000000"
 preserveAspectRatio="xMidYMid meet">
<metadata>
Created by potrace 1.14, written by Peter Selinger 2001-2017
</metadata>
<g transform="translate(0.000000,640.000000) scale(0.100000,-0.100000)"
fill="#000000" stroke="none">
<path d="M3396 6391 c-2 -3 -27 -6 -55 -5 -28 1 -51 -1 -51 -5 0 -3 -17 -7
-37 -8 -76 -2 -133 -8 -133 -14 0 -3 -16 -5 -35 -4 -19 0 -35 -3 -35 -8 0 -5
-9 -7 -20 -4 -11 3 -22 2 -25 -3 -2 -4 -26 -11 -52 -14 -27 -4 -56 -9 -65 -12
-10 -2 -24 -5 -30 -7 -7 -1 -19 -6 -26 -11 -7 -4 -16 -6 -19 -3 -2 3 -23 -1
-45 -9 -22 -7 -44 -11 -49 -8 -5 3 -9 1 -9 -4 0 -10 -79 -34 -91 -27 -4 3 -12
-2 -19 -10 -7 -8 -18 -15 -26 -15 -7 0 -25 -5 -41 -12 -15 -6 -35 -12 -43 -14
-8 -2 -23 -8 -35 -13 -21 -11 -78 -33 -82 -32 -2 0 -19 -8 -38 -19 -20 -11
-42 -20 -50 -20 -7 0 -20 -7 -29 -15 -8 -9 -18 -15 -21 -15 -7 1 -118 -52
-125 -60 -3 -3 -18 -12 -35 -20 -16 -8 -33 -19 -37 -25 -4 -5 -8 -6 -8 -2 0 4
-15 -3 -33 -17 -19 -14 -37 -23 -40 -19 -4 3 -7 -1 -7 -11 0 -9 -4 -15 -9 -12
-7 5 -20 -3 -68 -44 -7 -6 -13 -7 -13 -3 -1 4 -9 -2 -19 -14 -10 -12 -21 -19
-25 -16 -3 3 -8 -2 -12 -11 -3 -9 -11 -16 -18 -16 -6 0 -28 -16 -49 -35 -21
-19 -41 -35 -44 -35 -6 0 -33 -24 -134 -120 -44 -42 -79 -74 -79 -72 0 2 -18
-17 -39 -42 -21 -25 -42 -42 -45 -39 -3 4 -6 2 -6 -4 0 -9 -14 -27 -97 -123
-18 -21 -33 -43 -33 -49 0 -6 -5 -10 -12 -9 -7 2 -12 -3 -13 -10 0 -7 -6 -16
-13 -21 -8 -5 -12 -11 -10 -13 1 -3 -10 -21 -25 -39 -16 -19 -35 -49 -44 -66
-8 -18 -19 -33 -24 -33 -5 0 -9 -7 -9 -15 0 -8 -4 -15 -10 -15 -5 0 -10 -6
-10 -13 0 -7 -9 -23 -20 -35 -12 -12 -17 -22 -13 -22 4 0 3 -4 -2 -8 -6 -4
-17 -20 -25 -37 -8 -16 -21 -36 -28 -43 -7 -8 -10 -18 -7 -23 4 -5 1 -9 -4 -9
-6 0 -11 -9 -11 -20 0 -11 -4 -20 -10 -20 -5 0 -12 -11 -16 -25 -3 -14 -11
-25 -17 -25 -6 0 -8 -3 -4 -6 3 -4 -1 -21 -10 -38 -10 -17 -18 -33 -18 -36 0
-3 -9 -19 -18 -37 -9 -18 -17 -39 -17 -48 0 -8 -4 -15 -10 -15 -5 0 -10 -8
-10 -18 0 -10 -3 -22 -7 -26 -5 -4 -8 -11 -9 -14 0 -4 -6 -20 -13 -37 -7 -16
-14 -35 -15 -42 -1 -7 -5 -16 -9 -19 -4 -4 -7 -13 -7 -21 0 -7 -7 -30 -17 -51
-9 -20 -15 -43 -14 -50 1 -8 -3 -20 -10 -28 -6 -8 -8 -14 -4 -14 4 0 2 -7 -5
-15 -6 -8 -10 -18 -7 -22 3 -4 0 -19 -6 -33 -5 -14 -11 -29 -13 -35 -11 -44
-17 -73 -18 -92 0 -13 -4 -23 -7 -23 -3 0 -6 -6 -7 -12 -3 -31 -11 -83 -12
-83 -4 0 -22 -108 -22 -127 1 -10 -3 -18 -7 -18 -11 0 -8 -44 4 -52 6 -5 5 -8
-4 -8 -7 0 -11 -6 -8 -14 3 -8 3 -17 -1 -20 -3 -4 -7 -19 -8 -34 -13 -151 -16
-197 -18 -260 -2 -39 -6 -75 -9 -78 -3 -4 -3 -14 2 -23 7 -15 7 -29 1 -48 -2
-7 -2 -72 1 -151 1 -18 -1 -36 -4 -39 -3 -3 -2 -16 3 -29 6 -15 6 -26 -1 -30
-5 -3 -6 -11 -2 -17 4 -7 8 -47 8 -89 0 -43 4 -78 9 -78 5 0 3 -6 -3 -13 -6
-8 -8 -17 -4 -20 3 -4 7 -24 9 -45 3 -53 13 -161 20 -202 9 -63 15 -105 19
-130 1 -14 4 -25 5 -25 3 0 9 -38 12 -67 1 -16 5 -28 9 -28 3 0 6 -14 7 -30 0
-17 4 -40 8 -53 5 -12 9 -30 10 -39 1 -10 3 -19 4 -20 1 -2 4 -12 6 -23 8 -53
37 -145 46 -145 5 0 6 -4 3 -10 -3 -5 -3 -16 2 -22 4 -7 8 -20 9 -28 0 -8 4
-23 8 -32 4 -9 9 -22 10 -30 4 -20 21 -64 50 -130 9 -20 16 -38 16 -41 0 -2 7
-22 16 -43 9 -22 17 -41 17 -44 0 -3 11 -24 23 -46 13 -23 20 -44 17 -48 -4
-3 -2 -6 4 -6 6 0 14 -11 17 -25 4 -14 11 -25 17 -25 6 0 7 -5 4 -10 -3 -5 -1
-10 5 -10 6 0 9 -4 5 -9 -3 -5 2 -16 10 -24 8 -9 15 -22 15 -31 0 -8 4 -17 8
-20 8 -4 63 -92 122 -194 8 -14 24 -35 36 -46 11 -12 23 -29 27 -38 3 -10 11
-18 17 -18 6 0 8 -5 5 -10 -3 -6 1 -13 9 -16 9 -3 16 -10 16 -15 0 -10 51 -70
83 -98 9 -8 17 -21 17 -29 0 -7 4 -10 10 -7 5 3 10 1 10 -4 0 -17 253 -261
270 -261 5 0 16 -10 24 -22 9 -12 16 -18 16 -13 0 5 8 0 19 -11 30 -31 60 -54
71 -54 6 0 10 -4 10 -10 0 -5 7 -10 15 -10 8 0 15 -4 15 -10 0 -5 7 -10 15
-10 8 0 15 -4 15 -10 0 -5 7 -10 15 -10 8 0 15 -4 15 -8 0 -5 15 -16 33 -25
17 -9 55 -30 82 -47 28 -17 67 -37 88 -46 20 -9 37 -20 37 -25 0 -5 6 -9 14
-9 8 0 46 -16 86 -36 40 -20 80 -37 89 -39 9 -2 35 -13 58 -24 23 -12 48 -21
56 -21 7 0 17 -3 21 -7 3 -4 16 -8 28 -10 12 -2 27 -8 35 -14 7 -6 13 -9 13
-5 0 3 23 -3 50 -14 28 -11 50 -17 50 -14 0 4 7 1 15 -6 8 -7 15 -9 15 -4 0 5
5 2 10 -6 7 -11 10 -11 10 -2 0 10 4 10 23 0 12 -7 35 -14 52 -16 16 -2 32 -7
35 -10 3 -4 14 -8 25 -8 26 -2 87 -14 94 -18 3 -2 23 -7 44 -10 141 -23 145
-23 157 -31 6 -3 10 -1 10 5 0 7 7 7 23 -1 12 -7 23 -12 25 -11 1 1 3 2 5 1 1
0 31 -2 67 -5 36 -3 85 -7 110 -10 76 -8 915 -3 915 6 0 0 36 3 80 6 129 8
140 9 152 17 6 4 14 3 18 -3 4 -6 12 -7 18 -3 7 4 21 8 32 9 76 6 175 19 235
30 23 4 56 10 120 19 14 2 25 4 25 5 0 1 14 3 30 6 40 6 70 12 70 15 0 1 9 3
20 4 57 8 101 18 124 27 14 6 40 12 56 14 30 3 36 4 85 18 14 4 36 8 50 10 14
2 32 6 40 9 17 7 101 30 112 31 3 1 10 4 14 8 4 4 14 2 22 -5 13 -10 14 -9 7
2 -6 11 -4 13 8 8 10 -4 20 0 26 11 6 9 11 12 11 5 0 -7 7 -10 15 -7 8 4 13
10 10 14 -3 5 4 6 15 3 11 -3 26 0 34 6 11 9 15 9 19 -1 4 -10 6 -10 6 0 1 6
12 12 26 12 14 0 25 5 25 11 0 6 9 9 20 6 11 -3 18 0 17 7 -1 6 3 10 9 9 7 -1
10 9 7 25 -5 33 -5 25 -3 142 1 123 1 181 0 200 0 8 0 26 1 40 0 14 0 32 0 40
-4 53 -2 111 4 120 3 5 3 10 -2 10 -9 0 -8 123 1 146 3 7 2 15 -2 18 -8 5 -6
120 2 142 3 7 1 16 -3 18 -5 3 -6 20 -4 38 3 18 4 42 3 53 -2 20 -2 74 -1 110
1 11 1 27 1 35 -1 8 1 32 2 53 2 20 1 37 -2 37 -4 0 -5 26 -3 57 2 32 4 63 4
68 0 6 -2 20 -5 32 -3 13 0 23 6 23 7 0 7 4 0 13 -6 7 -7 18 -2 27 4 7 5 23 1
34 -4 12 -6 39 -4 61 5 54 5 57 -1 82 -3 14 0 23 7 23 8 0 8 3 0 11 -7 7 -8
21 -3 39 4 15 4 33 0 40 -5 7 -5 23 -2 34 4 12 6 36 4 54 -1 17 -2 49 -2 70 0
20 0 46 -1 57 -1 30 -1 87 1 110 1 11 -1 30 -3 43 -3 12 -1 22 5 22 7 0 7 4 0
13 -6 7 -7 18 -2 27 4 7 5 23 0 34 -4 12 -4 30 0 41 4 11 4 29 0 40 -4 11 -5
38 -3 60 2 22 4 46 3 53 0 6 0 18 0 25 -1 6 1 27 3 45 2 18 0 35 -3 37 -8 5
-3 112 5 125 4 6 2 10 -3 10 -6 0 -7 14 -2 35 5 21 4 35 -2 35 -5 0 -5 6 1 17
5 9 6 26 2 37 -4 12 -6 39 -4 61 2 22 4 46 3 53 0 6 0 18 0 25 -1 6 1 27 3 45
2 17 1 32 -3 32 -3 0 -5 14 -5 32 0 31 -1 32 -40 30 -54 -3 -52 -3 -118 1 -32
2 -60 0 -63 -5 -3 -5 -11 -5 -17 -1 -19 11 -221 10 -229 -1 -5 -8 -8 -8 -8 0
0 9 -51 11 -85 4 -5 -1 -12 -1 -15 0 -15 7 -120 4 -120 -3 0 -4 -6 -5 -12 0
-20 12 -232 10 -240 -2 -5 -7 -8 -7 -8 1 0 11 -71 11 -89 0 -5 -4 -12 -3 -15
2 -4 6 -111 8 -126 2 -3 -1 -9 -1 -15 0 -26 6 -102 6 -116 -1 -8 -4 -21 -4
-29 1 -7 4 -18 6 -24 4 -13 -5 -16 -1040 -4 -1060 4 -6 4 -14 1 -18 -11 -10
-10 -135 1 -129 5 4 6 1 1 -7 -11 -18 -12 -240 -1 -247 4 -3 3 -9 -4 -13 -9
-6 -9 -12 0 -30 7 -12 8 -20 3 -17 -10 7 -9 -495 2 -513 5 -8 4 -11 -3 -6 -7
4 -10 -11 -7 -49 2 -32 0 -53 -6 -50 -5 4 -9 3 -9 -2 0 -4 -12 -9 -27 -9 -57
-3 -98 -10 -110 -17 -8 -5 -13 -3 -13 3 0 6 -5 8 -12 4 -13 -9 -56 -11 -295
-17 -89 -3 -167 -8 -174 -12 -8 -6 -10 -4 -4 6 7 11 6 12 -7 2 -8 -7 -17 -10
-20 -8 -3 3 -47 8 -97 10 -50 2 -96 7 -101 10 -6 3 -10 1 -10 -5 0 -6 -5 -8
-12 -3 -7 4 -22 8 -33 8 -11 0 -26 4 -32 8 -7 5 -16 6 -21 3 -8 -5 -77 7 -106
19 -15 7 -17 5 -11 -6 7 -11 6 -12 -6 -3 -14 12 -78 29 -91 26 -5 -1 -8 4 -8
11 0 8 -4 7 -10 -3 -7 -11 -10 -11 -10 -2 0 7 -4 11 -9 7 -5 -3 -12 -1 -16 5
-3 5 -15 10 -26 10 -11 0 -30 7 -43 15 -13 9 -28 15 -32 14 -17 -3 -54 14 -54
24 0 6 -3 8 -6 4 -7 -7 -142 59 -162 79 -6 7 -21 16 -32 19 -11 3 -20 10 -20
15 0 4 -8 10 -17 14 -25 8 -57 29 -66 44 -4 6 -15 12 -22 12 -8 0 -15 6 -15
14 0 8 -12 17 -26 20 -15 4 -24 9 -21 13 8 7 -16 32 -25 26 -5 -2 -8 3 -8 11
0 8 -9 18 -20 21 -11 3 -20 11 -20 16 0 15 -26 39 -34 32 -3 -4 -6 -1 -6 6 0
7 -16 29 -35 49 -19 20 -38 45 -41 55 -3 9 -9 17 -13 17 -4 0 -20 22 -36 50
-17 27 -34 50 -38 50 -5 0 -5 5 -2 10 3 6 1 10 -4 10 -6 0 -11 7 -11 15 0 8
-3 15 -8 15 -8 0 -38 61 -34 73 1 4 -2 7 -6 7 -5 0 -18 21 -29 47 -51 114 -82
193 -76 193 3 0 0 6 -6 13 -6 8 -8 17 -4 20 3 4 1 7 -6 7 -7 0 -10 4 -6 9 3 5
1 12 -5 16 -6 4 -8 10 -6 14 3 4 -2 26 -10 50 -8 23 -12 47 -9 52 4 5 2 9 -3
9 -5 0 -9 6 -10 13 0 6 -3 19 -5 27 -7 29 -21 115 -19 123 1 4 -1 7 -6 7 -4 0
-8 17 -10 37 -1 20 -5 48 -8 62 -5 27 -16 144 -17 199 -1 17 -5 32 -8 32 -8 0
-2 47 7 62 3 4 1 8 -3 8 -11 0 -10 51 1 69 6 9 5 12 -1 8 -14 -9 -12 216 2
225 7 5 7 8 0 8 -6 0 -11 9 -12 20 -1 11 3 20 9 20 7 0 7 4 -1 13 -6 8 -8 17
-4 20 11 12 11 82 -1 96 -8 11 -8 13 2 7 8 -5 12 1 13 21 1 55 17 172 25 185
3 5 -1 8 -8 8 -10 0 -10 2 1 9 8 5 11 16 8 25 -4 9 -3 16 1 16 4 0 8 8 9 18 0
9 4 33 7 52 4 19 8 44 9 55 1 11 4 22 8 25 3 3 11 28 17 55 16 66 20 80 22 80
2 0 11 38 12 53 1 6 5 12 10 12 5 0 8 6 6 13 -1 6 3 22 10 35 7 12 10 22 6 22
-3 0 -1 6 5 13 6 8 8 17 4 20 -3 4 -1 7 5 7 7 0 12 6 12 13 1 6 9 30 20 52 11
22 19 45 20 52 0 6 5 13 11 15 5 2 11 11 13 21 1 10 10 27 19 38 9 10 17 24
17 31 0 6 8 17 18 25 11 10 12 12 2 8 -10 -4 -9 -2 3 8 9 8 17 19 17 26 0 6 5
11 12 11 6 0 9 3 5 6 -5 6 10 28 46 66 9 10 17 20 16 24 -1 16 144 174 160
174 5 0 13 9 16 21 4 11 9 18 12 15 3 -3 11 0 18 7 7 7 38 30 69 52 31 22 56
43 56 48 0 4 5 5 10 2 6 -3 17 1 26 9 9 9 21 13 27 9 6 -4 8 0 4 9 -4 11 1 16
20 16 14 0 28 3 32 8 3 5 17 14 31 20 110 51 176 75 184 67 3 -4 6 -2 6 4 0 6
12 13 28 16 15 3 36 8 47 11 61 17 188 42 210 41 14 0 25 3 25 7 0 4 9 5 20 3
11 -2 20 -1 20 3 0 4 17 7 38 8 20 0 75 4 122 9 47 4 128 8 180 8 56 0 98 5
102 11 5 8 8 8 8 0 0 -6 37 -11 97 -13 55 -1 100 -6 104 -13 4 -7 9 -7 13 1 4
6 11 9 15 6 5 -2 33 -7 64 -9 30 -3 67 -7 83 -10 16 -3 49 -8 74 -11 25 -4 48
-11 51 -17 4 -7 9 -6 13 1 4 6 12 9 17 6 11 -7 48 -16 69 -17 8 0 21 -5 27
-10 7 -6 20 -8 28 -4 8 3 15 1 15 -4 0 -5 8 -8 18 -8 9 0 37 -7 61 -16 24 -9
52 -16 62 -16 11 0 19 -5 19 -12 0 -6 3 -9 6 -5 4 3 29 -3 57 -13 27 -11 54
-17 59 -14 4 3 8 0 8 -5 0 -6 8 -11 18 -11 10 0 22 -3 26 -7 4 -5 11 -8 14 -9
13 -1 47 -15 75 -30 16 -7 37 -14 48 -14 10 0 19 -4 19 -10 0 -5 6 -10 14 -10
7 0 62 -24 122 -54 l109 -53 3 29 c2 15 7 26 12 23 5 -3 8 3 8 12 -1 18 42
143 52 153 3 3 5 10 6 15 2 29 17 74 23 71 6 -4 11 14 14 57 1 9 4 17 8 17 4
0 10 12 14 27 3 15 14 43 24 63 10 20 17 44 15 53 -1 10 1 17 6 17 7 0 22 47
24 75 1 6 7 16 14 23 6 7 12 20 12 27 0 8 5 26 12 42 6 15 12 30 13 33 1 3 5
13 9 22 4 9 9 22 10 30 2 7 9 27 16 43 7 17 14 37 15 45 1 8 9 32 18 54 9 21
17 44 17 52 0 7 5 16 10 19 6 4 8 10 5 15 -3 5 -1 11 5 15 6 4 8 11 5 16 -4 5
-2 9 3 9 5 0 12 12 15 26 3 20 -1 28 -19 36 -13 6 -24 15 -24 20 0 4 -9 8 -20
8 -11 0 -20 3 -20 8 0 9 -75 45 -95 45 -8 0 -15 6 -15 14 0 7 -11 13 -26 13
-14 0 -23 4 -20 8 2 4 -5 9 -16 9 -12 1 -24 7 -28 14 -4 6 -13 8 -19 5 -6 -4
-11 -2 -11 4 0 6 -4 9 -9 5 -5 -3 -16 2 -25 10 -8 9 -19 16 -23 16 -17 0 -59
12 -68 20 -6 4 -22 10 -37 13 -14 2 -39 11 -56 20 -16 8 -32 13 -34 10 -3 -2
-25 4 -49 14 -24 11 -52 18 -61 16 -10 -1 -18 1 -18 5 0 7 -27 14 -125 36 -11
2 -35 8 -52 14 -18 5 -33 7 -33 4 0 -3 -6 -1 -12 4 -7 5 -29 10 -48 12 -19 2
-39 6 -45 9 -5 4 -19 7 -30 9 -11 1 -31 4 -45 7 -66 12 -88 16 -120 22 -19 3
-48 8 -65 10 -16 3 -41 7 -55 10 -14 4 -38 8 -55 9 -88 8 -186 16 -230 20 -27
2 -50 5 -50 6 0 5 -646 5 -649 0z"/>
</g>
</svg>
